Coordinates
version=1
nRows=8
nColumns=36
inDegrees=yes

Units are S.I. units (second, meters, Newtons, ...)
If the header above contains a line with 'inDegrees', this indicates whether rotational values are in degrees (yes) or radians (no).

endheader
time	pelvis_tilt	pelvis_list	pelvis_rotation	pelvis_tx	pelvis_ty	pelvis_tz	hip_flexion_r	hip_adduction_r	hip_rotation_r	knee_angle_r	knee_angle_r_beta	ankle_angle_r	subtalar_angle_r	mtp_angle_r	hip_flexion_l	hip_adduction_l	hip_rotation_l	knee_angle_l	knee_angle_l_beta	ankle_angle_l	subtalar_angle_l	mtp_angle_l	lumbar_extension	lumbar_bending	lumbar_rotation	arm_flex_r	arm_add_r	arm_rot_r	elbow_flex_r	pro_sup_r	arm_flex_l	arm_add_l	arm_rot_l	elbow_flex_l	pro_sup_l
      1.47500000	     -3.69065633	      2.11827799	      1.70364241	     -0.85831937	      1.26701355	     -0.09624001	     -1.76068740	     -3.72321600	     -6.57560961	      1.00188948	      0.01748627	     -0.40660952	     -9.86446310	     -7.49999987	     -1.70556552	      1.51404567	     -2.50850179	      1.42202304	      0.02481898	     -0.78080696	     -3.27845417	     -7.49999987	     -5.06460698	     -0.54903844	     -0.10015256	     64.38899756	    -14.18690785	     33.06393643	     73.01387331	     89.83671486	     68.52193136	     -7.99626569	     33.71595856	     58.42862919	     62.47954908
      1.47916670	     -3.86379980	      2.10061179	      1.54487459	     -0.85865872	      1.27091019	     -0.09564813	     -1.49807279	     -3.69410224	     -6.60030162	      1.04862187	      0.01830190	     -0.45149494	     -9.99413362	     -7.49999987	     -1.54018504	      1.48820647	     -2.44843918	      1.39772343	      0.02439488	     -0.72714033	     -3.02454699	     -7.49999987	     -5.00781069	     -0.51454913	      0.02378184	     64.36488628	    -13.92068518	     32.75387042	     72.86457816	     92.21569302	     68.45657575	     -7.87414712	     33.48669652	     58.21290595	     62.83586238
      1.48333330	     -3.85936368	      2.11772866	      1.52624466	     -0.86019825	      1.27105457	     -0.09569258	     -1.51130419	     -3.69450811	     -7.00632321	      0.99257151	      0.01732364	     -0.56695989	     -9.73418730	     -7.49999987	     -1.51058753	      1.51258262	     -2.25786602	      1.40020794	      0.02443824	     -0.82160439	     -3.13778700	     -7.49999987	     -5.21694904	     -0.53126626	     -0.06589440	     64.73276390	    -13.69327390	     33.17716038	     72.54649870	     87.82802740	     68.50735334	     -7.79852938	     33.24225513	     58.21351175	     62.31117877
      1.48750000	     -4.11635369	      2.20554520	      1.35633364	     -0.86010148	      1.26870311	     -0.09517337	     -1.16417374	     -3.76446899	     -6.86409858	      1.03127057	      0.01799907	     -1.02787066	    -10.50274385	     -7.49999987	     -1.22423966	      1.61600471	     -2.46436395	      1.35683647	      0.02368126	     -1.03809798	     -3.25148611	     -7.49999987	     -5.13927776	     -0.67926810	      0.17317516	     64.90125414	    -13.61102238	     32.68780525	     72.71242568	     92.20236837	     68.72741617	     -7.75090951	     33.48787812	     58.25884051	     62.96602514
      1.49166670	     -4.25312253	      2.26512859	      1.44786221	     -0.86048249	      1.26822776	     -0.09478654	     -0.98038903	     -3.78285693	     -6.93261433	      1.03521024	      0.01806783	     -0.80033544	    -10.06868206	     -7.49999987	     -0.97916781	      1.65112647	     -2.31622774	      1.43477433	      0.02504154	     -1.11835918	     -3.45977838	     -7.49999987	     -5.12901231	     -0.78741306	      0.23458976	     65.12732450	    -13.63479872	     32.58592829	     72.67902546	     91.78360237	     69.00058717	     -7.53219275	     33.80880396	     58.03750285	     62.92867125
      1.49583330	     -4.24213907	      2.27366344	      1.47358078	     -0.86116396	      1.27153637	     -0.09599704	     -0.91498984	     -3.77062193	     -6.73865053	      1.09056784	      0.01903400	     -0.92412202	    -10.28888881	     -7.49999987	     -0.91869206	      1.61838688	     -2.22425772	      1.46981399	      0.02565309	     -1.12165076	     -2.98142246	     -7.49999987	     -5.32442525	     -0.73426073	      0.08704835	     65.43091182	    -13.37295194	     33.16699028	     72.21556278	     87.37477582	     69.09113077	     -7.42941469	     33.64048966	     57.89521744	     62.32252680
      1.50000000	     -4.20008777	      2.21851110	      1.33507994	     -0.86085176	      1.27059087	     -0.09602774	     -0.80551227	     -3.72456725	     -6.56540300	      1.19486182	      0.02085427	     -0.91428996	    -10.37884093	     -7.49999987	     -0.90862857	      1.54942667	     -2.26098605	      1.46977638	      0.02565244	     -1.01848168	     -2.33034054	     -7.49999987	     -5.53387479	     -0.68434727	      0.18838206	     65.30141127	    -13.25146174	     32.64558287	     72.45512449	     91.79768257	     69.36205814	     -7.33576740	     34.13250564	     57.64545424	     62.83094820
      1.50416670	     -4.29703590	      2.22565864	      1.34177647	     -0.86274796	      1.27027840	     -0.09540806	     -0.60963417	     -3.73837444	     -6.43423274	      1.24876880	      0.02179513	     -0.69581361	    -10.23224861	     -7.49999987	     -0.74776467	      1.55704833	     -1.90356700	      1.49586583	      0.02610778	     -0.93556283	     -2.41167084	     -7.49999987	     -5.65150749	     -0.70545067	      0.01319673	     65.64386085	    -13.06499235	     33.10858118	     72.19551467	     89.38710093	     69.68682405	     -7.37785295	     34.48977118	     57.65891754	     62.55731764
